IKResults
version=1
nRows=4
nColumns=63
inDegrees=yes

Units are S.I. units (second, meters, Newtons, ...)
If the header above contains a line with 'inDegrees', this indicates whether rotational values are in degrees (yes) or radians (no).

endheader
time	pelvis_tilt	pelvis_list	pelvis_rotation	pelvis_tx	pelvis_ty	pelvis_tz	hip_flexion_r	hip_adduction_r	hip_rotation_r	knee_angle_r	knee_angle_r_beta	ankle_angle_r	subtalar_angle_r	mtp_angle_r	hip_flexion_l	hip_adduction_l	hip_rotation_l	knee_angle_l	knee_angle_l_beta	ankle_angle_l	subtalar_angle_l	mtp_angle_l	L5_S1_Flex_Ext	L5_S1_Lat_Bending	L5_S1_axial_rotation	L4_L5_Flex_Ext	L4_L5_Lat_Bending	L4_L5_axial_rotation	L3_L4_Flex_Ext	L3_L4_Lat_Bending	L3_L4_axial_rotation	L2_L3_Flex_Ext	L2_L3_Lat_Bending	L2_L3_axial_rotation	L1_L2_Flex_Ext	L1_L2_Lat_Bending	L1_L2_axial_rotation	L1_T12_Flex_Ext	L1_T12_Lat_Bending	L1_T12_axial_rotation	Abs_r3	Abs_r2	Abs_r1	Abs_t1	Abs_t2	neck_flexion	neck_bending	neck_rotation	arm_flex_r	arm_add_r	arm_rot_r	elbow_flex_r	pro_sup_r	wrist_flex_r	wrist_dev_r	arm_flex_l	arm_add_l	arm_rot_l	elbow_flex_l	pro_sup_l	wrist_flex_l	wrist_dev_l
      0.03333333	    -22.51895297	    -13.63111570	     14.32621450	     -1.78210539	      0.90539664	      0.70192187	     20.56651872	      4.42190502	     -5.49623110	      4.62864187	      0.08078504	      6.60856609	    -17.35350797	      0.00000000	     14.84984347	    -12.53516390	    -30.32911456	      5.12637395	      0.08947210	     10.95145596	     -6.07027788	      0.00000000	      4.28869089	      0.53005146	      1.42270941	      7.96452785	      0.70496844	      1.51162875	      7.04589026	      1.28876711	      1.51162875	      4.90154482	      1.28876711	      1.24487074	      3.98247836	      1.08088093	      1.15595140	      2.45055797	      0.82104970	      1.06703206	     30.63369015	      5.99604808	      7.91268294	      0.00000000	      0.00000000	     17.30996838	      3.93303048	      0.31384844	     -3.98127420	     -6.68738215	    -73.53881710	      1.63296205	     89.99559364	      0.00000000	      0.00000000	     -2.22520904	     -7.90104342	      3.29103571	      0.42746002	     89.99559364	      0.00000000	      0.00000000
      0.06666667	    -22.47480369	    -13.60795560	     14.27550662	     -1.78130813	      0.90565066	      0.70201835	     20.55997051	      4.43631549	     -5.49568289	      4.79859992	      0.08375137	      6.66847710	    -17.37280901	      0.00000000	     14.75480338	    -12.56076101	    -30.39883697	      5.16008978	      0.09006056	     10.95076153	     -6.11685585	      0.00000000	      4.29135004	      0.53420739	      1.39371050	      7.96946616	      0.71049582	      1.48081741	      7.05025898	      1.29887184	      1.48081741	      4.90458396	      1.29887184	      1.21949669	      3.98494765	      1.08935570	      1.13238978	      2.45207741	      0.82748724	      1.04528288	     30.65268420	      6.04306080	      7.75139970	      0.00000000	      0.00000000	     17.18294797	      3.94174122	      0.29335684	     -4.04615304	     -6.65477404	    -73.57843792	      1.68873677	     89.99559364	      0.00000000	      0.00000000	     -2.41121834	     -7.85016201	      3.29651800	      0.43120119	     89.99559364	      0.00000000	      0.00000000
      0.10000000	    -22.23418880	    -13.73199894	     14.16162288	     -1.77982459	      0.90627712	      0.70252953	     20.68175464	      4.66504960	     -5.63477765	      5.63612806	      0.09836899	      7.07210875	    -17.41670626	      0.00000000	     14.44734165	    -12.84937918	    -30.49061976	      5.17968171	      0.09040250	     10.94723379	     -6.18502439	      0.00000000	      4.28204977	      0.56786891	      1.30722825	      7.95219462	      0.75526566	      1.38893002	      7.03497956	      1.38071648	      1.38893002	      4.89395468	      1.38071648	      1.14382472	      3.97631141	      1.15799829	      1.06212296	      2.44676324	      0.87962895	      0.98042119	     30.58625328	      6.42384673	      7.27041138	      0.00000000	      0.00000000	     16.22904718	      4.00173160	      0.20268553	     -4.07150820	     -6.58166025	    -73.99215367	      2.00677424	     89.99559364	      0.00000000	      0.00000000	     -2.80088170	     -7.68496053	      3.37269130	      0.53029109	     89.99559364	      0.00000000	      0.00000000
      0.13333333	    -21.95565971	    -13.79836764	     14.05449588	     -1.77815811	      0.90704160	      0.70319269	     20.77858020	      4.84749122	     -5.87700768	      6.54562120	      0.11424264	      7.44988519	    -17.33541799	      0.00000000	     14.11534443	    -13.12185100	    -30.63887795	      5.29119161	      0.09234871	     10.94390447	     -6.29608205	      0.00000000	      4.25776661	      0.59987757	      1.19677090	      7.90709837	      0.79783717	      1.27156908	      6.99508477	      1.45854233	      1.27156908	      4.86620146	      1.45854233	      1.04717454	      3.95376207	      1.22327035	      0.97237636	      2.43288784	      0.92921036	      0.89757817	     30.41280113	      6.78593508	      6.65608071	      0.00000000	      0.00000000	     15.31489321	      4.03926609	      0.11667479	     -4.04703630	     -6.45706545	    -74.64681895	      2.46903532	     89.99559364	      0.00000000	      0.00000000	     -3.27930910	     -7.49218424	      3.50407897	      0.74534551	     89.99559364	      0.00000000	      0.00000000
